<?xml version="1.0" encoding="utf-8"?>
<!-- Generator: Adobe Illustrator 21.1.0, SVG Export Plug-In . SVG Version: 6.00 Build 0)  -->
<svg version="1.1" id="Layer_1" xmlns="http://www.w3.org/2000/svg" xmlns:xlink="http://www.w3.org/1999/xlink" x="0px" y="0px"
	 viewBox="0 0 200 200" style="enable-background:new 0 0 200 200;" xml:space="preserve">
<g>
	<path d="M167.7,66H32.3c-4.6,0-8.3-3.7-8.3-8.3V42.3c0-4.6,3.7-8.3,8.3-8.3h135.3c4.6,0,8.3,3.7,8.3,8.3v15.3
		C176,62.3,172.3,66,167.7,66z"/>
</g>
<g>
	<path d="M167.7,116H32.3c-4.6,0-8.3-3.7-8.3-8.3V92.3c0-4.6,3.7-8.3,8.3-8.3h135.3c4.6,0,8.3,3.7,8.3,8.3v15.3
		C176,112.3,172.3,116,167.7,116z"/>
</g>
<g>
	<path d="M167.7,166H32.3c-4.6,0-8.3-3.7-8.3-8.3v-15.3c0-4.6,3.7-8.3,8.3-8.3h135.3c4.6,0,8.3,3.7,8.3,8.3v15.3
		C176,162.3,172.3,166,167.7,166z"/>
</g>
</svg>
