<?xml version="1.0" encoding="utf-8"?>
<!-- Generator: Adobe Illustrator 21.1.0, SVG Export Plug-In . SVG Version: 6.00 Build 0)  -->
<svg version="1.1" id="css" xmlns="http://www.w3.org/2000/svg" xmlns:xlink="http://www.w3.org/1999/xlink" x="0px" y="0px"
	 viewBox="0 0 200 200" style="enable-background:new 0 0 200 200;" xml:space="preserve">
<style type="text/css">
	.st0{fill:#264DE4;}
	.st1{fill:#2965F1;}
	.st2{fill:#EBEBEB;}
	.st3{fill:#FFFFFF;}
</style>
<g id="layer1" transform="translate(-193.633,-276.3622)" groupmode="layer" label="Calque 1">
	<g id="g3013" transform="translate(119,276.3622)">
		<polygon id="polygon2989" class="st0" points="236,47.1 224.8,172.7 174.4,186.7 124.2,172.8 113,47.1 		"/>
		<polygon id="polygon2991" class="st1" points="215.2,164.8 224.8,57.4 174.5,57.4 174.5,176 		"/>
		<polygon id="polygon2993" class="st2" points="138.6,104 140,119.4 174.5,119.4 174.5,104 		"/>
		<polygon id="polygon2995" class="st2" points="174.5,72.8 174.4,72.8 135.9,72.8 137.3,88.2 174.5,88.2 		"/>
		<polygon id="polygon2997" class="st2" points="174.5,160.1 174.5,144 174.4,144 157.3,139.4 156.2,127.1 147.8,127.1 140.7,127.1
			142.9,151.3 174.4,160.1 		"/>
		<path id="path2999" connector-curvature="0" d="M141.9,13h18.7v7.8h-10.9v7.8h10.9v7.8h-18.7V13z"/>
		<path id="path3001" connector-curvature="0" d="M164.3,13H183v6.8h-10.9v1.4H183v15.6h-18.7v-7.1h10.9v-1.4h-10.9V13z"/>
		<path id="path3003" connector-curvature="0" d="M186.7,13h18.7v6.8h-10.9v1.4h10.9v15.6h-18.7v-7.1h10.9v-1.4h-10.9V13z"
			/>
		<polygon id="polygon3005" class="st3" points="193.4,119.4 191.6,139.4 174.4,144 174.4,160.1 206,151.3 206.3,148.7 209.9,108.1
			210.3,104 213,72.8 174.4,72.8 174.4,88.2 196.2,88.2 194.8,104 174.4,104 174.4,119.4 		"/>
	</g>
</g>
</svg>
