<?xml version="1.0" encoding="utf-8"?>
<!-- Generator: Adobe Illustrator 21.1.0, SVG Export Plug-In . SVG Version: 6.00 Build 0)  -->
<svg version="1.1" id="Layer_1" xmlns="http://www.w3.org/2000/svg" xmlns:xlink="http://www.w3.org/1999/xlink" x="0px" y="0px"
	 viewBox="0 0 200 200" style="enable-background:new 0 0 200 200;" xml:space="preserve">
<style type="text/css">
	.st0{fill:#E44D26;}
	.st1{fill:#F16529;}
	.st2{fill:#EBEBEB;}
	.st3{fill:#FFFFFF;}
</style>
<path d="M49.5,13h7.8v7.8h7.2V13h7.8v23.5h-7.8v-7.8h-7.1v7.8h-7.9 M82.7,20.8h-6.9V13h21.7v7.8h-6.9v15.6h-7.8 M100.9,13h8.2l5,8.3
	l5-8.3h8.2v23.5h-7.8V24.8l-5.5,8.4l-5.5-8.4v11.6h-7.7 M131.2,13h7.8v15.7h11.1v7.8h-18.9"/>
<path class="st0" d="M49.2,173.2L38,47.2h123.4l-11.2,125.9l-50.6,14"/>
<path class="st1" d="M99.7,176.4V57.6h50.4L140.5,165"/>
<path class="st2" d="M60.9,73h38.8v15.4H77.9l1.4,15.8h20.4v15.4H65.1 M65.8,127.4h15.5l1.1,12.3l17.3,4.6v16.1L68,151.6"/>
<path class="st3" d="M138.3,73H99.6v15.4h37.3 M135.5,104.2H99.6v15.4h19l-1.8,20.1l-17.2,4.6v16.1l31.6-8.8"/>
</svg>
